<?xml version="1.0" encoding="UTF-8" standalone="no"?><!DOCTYPE svg PUBLIC "-//W3C//DTD SVG 1.1//EN" "http://www.w3.org/Graphics/SVG/1.1/DTD/svg11.dtd"><svg width="100%" height="100%" viewBox="0 0 2778 2778" version="1.1" xmlns="http://www.w3.org/2000/svg" xmlns:xlink="http://www.w3.org/1999/xlink" xml:space="preserve" xmlns:serif="http://www.serif.com/" style="fill-rule:evenodd;clip-rule:evenodd;stroke-linejoin:round;stroke-miterlimit:2;"><path d="M5.556,1055.556l0,-1049.869l2777.3,-0l0,2776.823l-2777.3,0l-0,-1726.953m2603.171,877.521c1.006,-4.382 1.205,-9.161 3.138,-13.088c36.846,-74.877 59.326,-154.314 79.642,-235.02c24.084,-95.673 33.761,-193.108 34.676,-290.556c0.72,-76.75 -12.215,-153.741 -20.763,-230.438c-12.596,-113.022 -50.024,-219.307 -95.818,-322.234c-55.464,-124.664 -130.215,-237.974 -221.74,-339.105c-69.278,-76.55 -147.01,-144.34 -232.57,-202.756c-82.947,-56.632 -170.865,-103.699 -264.495,-140.161c-124.625,-48.533 -253.813,-79.774 -386.992,-86.399c-130.297,-6.482 -260.103,0.006 -388.713,30.954c-128.743,30.98 -251.141,76.251 -364.401,143.365c-120.436,71.366 -229.656,157.293 -322.147,264.272c-71.618,82.836 -132.91,171.809 -184.387,268.059c-45.22,84.549 -79.775,173.742 -102.421,266.333c-19.177,78.406 -34.059,158.849 -40.104,239.199c-5.842,77.654 -0.357,156.495 4.712,234.519c3.496,53.814 10.679,108.11 23.344,160.466c32.416,134.008 81.769,261.442 153.104,380.47c87.895,146.659 199.23,272.01 334.757,375.148c90.489,68.863 189.244,124.737 294.939,167.86c133.204,54.348 271.925,86.02 414.958,95.298c115.239,7.475 230.862,1.149 344.091,-22.301c131.476,-27.229 257.412,-71.871 374.861,-138.238c146.567,-82.819 275.115,-186.669 381.464,-318.339c70.933,-87.821 131.037,-181.591 180.865,-287.308Z" style="fill-rule:nonzero;"/><path d="M2607.275,1934.711c-48.376,104.084 -108.481,197.853 -179.413,285.675c-106.349,131.67 -234.897,235.52 -381.464,318.339c-117.45,66.366 -243.385,111.009 -374.861,138.238c-113.229,23.45 -228.852,29.776 -344.091,22.301c-143.032,-9.279 -281.753,-40.95 -414.958,-95.298c-105.695,-43.124 -204.45,-98.997 -294.939,-167.86c-135.527,-103.138 -246.862,-228.489 -334.757,-375.148c-71.336,-119.029 -120.688,-246.462 -153.104,-380.47c-12.665,-52.356 -19.848,-106.652 -23.344,-160.466c-5.069,-78.024 -10.554,-156.865 -4.712,-234.519c6.045,-80.349 20.927,-160.792 40.104,-239.199c22.646,-92.591 57.201,-181.783 102.421,-266.333c51.478,-96.25 112.77,-185.223 184.387,-268.06c92.491,-106.979 201.711,-192.906 322.147,-264.272c113.261,-67.114 235.658,-112.385 364.401,-143.365c128.61,-30.948 258.416,-37.435 388.713,-30.954c133.178,6.625 262.366,37.867 386.992,86.399c93.63,36.462 181.547,83.529 264.495,140.161c85.559,58.416 163.292,126.206 232.57,202.756c91.525,101.132 166.276,214.441 221.74,339.105c45.793,102.927 83.222,209.212 95.818,322.234c8.548,76.697 21.483,153.688 20.763,230.438c-0.915,97.448 -10.592,194.883 -34.676,290.556c-20.316,80.706 -42.796,160.143 -79.642,235.02c-1.932,3.926 -2.131,8.706 -4.589,14.722m-2197.133,241.158c327.445,390.429 744.247,552.207 1245.355,461.639c711.025,-128.507 1184.128,-840.089 997.039,-1572.159c-155.772,-609.527 -719.919,-1006.683 -1347.454,-955.076c-309.903,25.486 -576.75,149.558 -795.035,369.636c-255.977,258.079 -380.94,571.929 -373.251,936.386c5.95,282.027 98.625,533.679 273.344,759.575Z" style="fill:#fffafa;fill-rule:nonzero;"/><path d="M1377.791,1010.731c182.412,-40.402 369.007,70.259 426.262,251.083c55.316,174.698 -35.253,365.636 -208.293,438.027c-95.62,40.003 -191.764,43.073 -288.065,1.654c-10.995,-4.729 -22.453,-8.402 -33.785,-12.307c-1.51,-0.52 -3.548,0.492 -6.919,1.06l0,381.777c-56.253,-23.018 -109.564,-42.14 -159.882,-67.259c-13.065,-6.522 -23.419,-31.669 -23.728,-48.468c-2.571,-139.617 -3.395,-279.287 -2.858,-418.934c0.291,-75.702 -3.401,-152.581 8.141,-226.841c25.453,-163.761 126.779,-261.291 289.127,-299.791m151.809,300.926c-56.373,-39.016 -124.436,-29.139 -158.557,23.009c-33.78,51.626 -17.995,121.086 34.64,152.437c43.467,25.89 104.909,15.914 136.48,-22.16c36.951,-44.563 33.242,-103.664 -12.563,-153.286Z" style="fill:#fffdfd;fill-rule:nonzero;"/><path d="M1466.475,639.732c200.689,4.235 363.763,88.813 510.617,220.469c-41.656,37.551 -81.218,74.758 -122.634,109.774c-16.086,13.6 -31.117,0.393 -44.323,-10.262c-61.73,-49.798 -128.972,-89.503 -205.417,-112.446c-244.543,-73.394 -540.181,51.696 -647.224,273.827c-36.486,75.713 -49.255,156.964 -51.418,239.559c-3.706,141.508 -4.13,283.101 -6.195,424.655c-0.185,12.685 -2.293,25.342 -4.258,45.833c-16.275,-19.264 -28.392,-32.613 -39.42,-46.809c-166.363,-214.157 -181.216,-448.881 -86.946,-694.245c87.828,-228.597 264.166,-359.908 494.873,-421.759c64.474,-17.285 132.994,-19.479 202.347,-28.596Z" style="fill:#fffdfd;fill-rule:nonzero;"/><path d="M1916.311,1817.034c19.883,18.096 38.355,34.819 59.694,54.138c-16.776,15.791 -32.478,30.905 -48.535,45.632c-104.887,96.207 -232.207,140.732 -370.225,160.794c-23.745,3.451 -47.2,8.881 -70.937,12.397c-26.736,3.96 -37.368,-4.23 -37.599,-29.826c-0.376,-41.577 0.459,-83.165 0.803,-124.748c0.159,-19.172 10.268,-28.686 29.01,-29.875c126.605,-8.034 239.219,-51.249 336.346,-133.581c16.381,-13.886 32.979,-14.749 49.703,0.177c16.545,14.766 33.534,29.034 51.739,44.893Z" style="fill:#fffdfd;fill-rule:nonzero;"/><path d="M2108.932,1304.788c44.252,48.312 47.961,107.413 11.009,151.976c-31.571,38.074 -93.014,48.05 -136.48,22.16c-52.635,-31.351 -68.419,-100.811 -34.64,-152.437c34.121,-52.148 102.184,-62.025 160.111,-21.699Z" style="fill:#ff1721;fill-rule:nonzero;"/></svg>